<svg width="200" height="41" viewBox="0 0 200 41" fill="none" xmlns="http://www.w3.org/2000/svg">
<path d="M20.408 29.4593L9.88501 35.8369L12.6752 23.879L3.42773 15.8273L15.6248 14.791L20.408 3.55054L25.1911 14.791L37.3882 15.8273L28.1408 23.879L30.9309 35.8369L20.408 29.4593Z" fill="#33A544"/>
<path d="M61.2239 29.4593L50.7009 35.8369L53.4911 23.879L44.2437 15.8273L56.4407 14.791L61.2239 3.55054L66.0071 14.791L78.2041 15.8273L68.9567 23.879L71.7469 35.8369L61.2239 29.4593Z" fill="#33A544"/>
<path d="M102.041 29.4593L91.5178 35.8369L94.308 23.879L85.0605 15.8273L97.2576 14.791L102.041 3.55054L106.824 14.791L119.021 15.8273L109.774 23.879L112.564 35.8369L102.041 29.4593Z" fill="#33A544"/>
<path d="M138.775 29.4593L128.252 35.8369L131.042 23.879L121.795 15.8273L133.992 14.791L138.775 3.55054L143.558 14.791L155.755 15.8273L146.508 23.879L149.298 35.8369L138.775 29.4593Z" fill="#33A544"/>
<path d="M179.592 29.4593L169.069 35.8369L171.859 23.879L162.611 15.8273L174.808 14.791L179.592 3.55054L184.375 14.791L196.572 15.8273L187.324 23.879L190.115 35.8369L179.592 29.4593Z" fill="#33A544"/>
</svg>
