<svg width="85" height="85" viewBox="0 0 85 85" fill="none" xmlns="http://www.w3.org/2000/svg">
<circle cx="42.5" cy="42.5" r="40.5" stroke="white" stroke-width="4"/>
<g clip-path="url(#clip0_223:345)">
<path d="M49.6177 50.7036C51.5979 48.1172 50.628 44.3184 50.5876 44.1568C50.5068 43.9143 50.3452 43.7123 50.1027 43.6719C50.0623 43.6719 49.4965 43.5102 48.6883 43.4294C49.052 43.1465 49.3349 42.8636 49.6177 42.4999C51.5979 39.9135 50.628 36.1148 50.5876 35.9531C50.5068 35.7106 50.3452 35.5086 50.1027 35.4682C50.0623 35.4682 49.4965 35.3065 48.6883 35.2257C49.052 34.9428 49.3753 34.6195 49.6177 34.2962C51.5979 31.7098 50.628 27.9111 50.5876 27.7494C50.5068 27.507 50.3452 27.3049 50.1027 27.2645C50.0623 27.2645 49.052 26.9816 47.7184 26.9816C46.7889 26.9816 45.9806 27.1028 45.2532 27.3453C46.021 26.1734 46.3848 24.961 46.3039 23.7486C46.0615 20.3136 42.4648 18.1718 42.3435 18.0909C42.1415 17.9697 41.8586 17.9697 41.6565 18.0909C41.4949 18.1718 37.8982 20.3136 37.6961 23.7486C37.6153 24.961 37.979 26.1734 38.7468 27.3453C38.0194 27.1028 37.1708 26.9816 36.2817 26.9816C34.9481 26.9816 33.9378 27.2645 33.8974 27.2645C33.6549 27.3453 33.4528 27.507 33.4124 27.7494C33.372 27.9111 32.4021 31.7098 34.3823 34.2962C34.6652 34.6599 34.9481 34.9428 35.3118 35.2257C34.5036 35.3065 33.9378 35.4278 33.8974 35.4682C33.6549 35.549 33.4528 35.7106 33.4124 35.9531C33.372 36.1148 32.4021 39.9135 34.3823 42.4999C34.6652 42.8636 34.9481 43.1465 35.3118 43.4294C34.5036 43.5102 33.9378 43.6314 33.8974 43.6719C33.6549 43.7527 33.4528 43.9143 33.4124 44.1568C33.372 44.3184 32.4021 48.1172 34.3823 50.7036C34.6652 51.0673 34.9481 51.3502 35.3118 51.6331C34.5036 51.7139 33.9378 51.8351 33.8974 51.8755C33.6549 51.9564 33.4528 52.118 33.4124 52.3605C33.372 52.5221 32.4021 56.3209 34.3823 58.9073C35.5543 60.4025 37.4132 61.1703 39.9592 61.1703C40.4442 61.1703 40.9291 61.1299 41.4545 61.0895V67.313C41.4545 67.7171 41.7778 68 42.1415 68C42.5456 68 42.8285 67.6767 42.8285 67.313V61.1299C43.2326 61.1703 43.6771 61.1703 44.0408 61.1703C46.5868 61.1703 48.4862 60.4025 49.6177 58.9073C51.5979 56.3209 50.628 52.5221 50.5876 52.3605C50.5068 52.118 50.3452 51.9159 50.1027 51.8755C50.0623 51.8755 49.4965 51.7139 48.6883 51.6331C49.052 51.3502 49.3349 51.0673 49.6177 50.7036ZM49.3349 36.721C49.4965 37.6504 49.7794 39.9943 48.5266 41.6512C47.4759 43.0253 45.5361 43.591 42.7477 43.3081C42.5052 40.9238 42.9093 39.1457 43.8792 38.0141C44.9299 36.8018 46.5464 36.5593 47.7184 36.5593C48.365 36.5593 48.9711 36.6401 49.3349 36.721ZM41.9394 44.6013H41.9798C42.4648 44.6822 42.9093 44.6822 43.3538 44.7226C43.1518 44.8842 42.9497 45.0863 42.7477 45.2883C42.5052 45.6925 42.2223 46.0966 41.9798 46.5815C41.7374 46.0966 41.4545 45.6521 41.1312 45.2883C40.9695 45.0863 40.7675 44.8842 40.525 44.7226C40.9695 44.6822 41.4141 44.6822 41.899 44.6013H41.9394ZM41.1312 37.0847C40.9695 36.8826 40.7675 36.6805 40.525 36.5189C40.9695 36.4785 41.4141 36.4785 41.899 36.3977H41.9394H41.9798C42.4648 36.4785 42.9093 36.4785 43.3538 36.5189C43.1518 36.6805 42.9497 36.8826 42.7477 37.0847C42.5052 37.4888 42.2223 37.8929 41.9798 38.3779C41.7374 37.8929 41.4545 37.4484 41.1312 37.0847ZM47.7184 28.3556C48.4054 28.3556 48.9711 28.4365 49.3349 28.5173C49.4965 29.4468 49.7794 31.8311 48.5266 33.4476C47.4759 34.8216 45.5361 35.3874 42.7477 35.1045C42.5052 32.7201 42.9093 30.942 43.8792 29.8105C44.9299 28.5981 46.5464 28.3556 47.7184 28.3556ZM39.0297 23.8295C39.1914 21.6876 41.1716 20.1115 41.9798 19.5054C42.7881 20.0711 44.7683 21.6472 44.9299 23.8295C45.0512 25.4864 44.0408 27.1433 41.9798 28.8406C39.9188 27.1433 38.9489 25.4864 39.0297 23.8295ZM34.6248 28.5173C34.9885 28.4365 35.5543 28.3556 36.2413 28.3556C37.4132 28.3556 39.0297 28.5981 40.0805 29.8105C41.0503 30.942 41.4545 32.7201 41.212 35.1045C40.7675 35.1449 40.3229 35.1853 39.9188 35.1853C37.8174 35.1853 36.3221 34.6195 35.433 33.4476C34.1803 31.8311 34.4631 29.4468 34.6248 28.5173ZM34.6248 36.6805C34.9885 36.5997 35.5543 36.5189 36.2413 36.5189C37.4132 36.5189 39.0297 36.7614 40.0805 37.9737C41.0503 39.1053 41.4545 40.8834 41.212 43.2677C40.7675 43.3081 40.3229 43.3486 39.9188 43.3486C37.8174 43.3486 36.3221 42.7828 35.433 41.6108C34.1803 40.0348 34.4631 37.6504 34.6248 36.6805ZM34.6248 44.8842C34.9885 44.8034 35.5543 44.7226 36.2413 44.7226C37.4132 44.7226 39.0297 44.965 40.0805 46.1774C41.0503 47.309 41.4545 49.0871 41.212 51.4714C40.7675 51.5118 40.3229 51.5522 39.9188 51.5522C37.8174 51.5522 36.3221 50.9865 35.433 49.8145C34.1803 48.2384 34.4631 45.8541 34.6248 44.8842ZM41.212 59.6751C40.7675 59.7155 40.3229 59.7559 39.9188 59.7559C37.8174 59.7559 36.3221 59.1901 35.433 58.0182C34.1803 56.4017 34.4631 54.0174 34.6248 53.0879C34.9885 53.0071 35.5543 52.9263 36.2413 52.9263C37.4132 52.9263 39.0297 53.1687 40.0805 54.3811C41.0908 55.5126 41.4545 57.2908 41.212 59.6751ZM41.9798 54.7852C41.7374 54.3003 41.4545 53.8557 41.1312 53.492C40.9695 53.29 40.7675 53.0879 40.525 52.9263C40.9695 52.8858 41.4141 52.8858 41.899 52.805H41.9394H41.9798C42.4648 52.8858 42.9093 52.8858 43.3538 52.9263C43.1518 53.0879 42.9497 53.29 42.7477 53.492C42.5052 53.8557 42.2223 54.3003 41.9798 54.7852ZM49.3349 53.0879C49.4965 54.0174 49.7794 56.4017 48.5266 58.0182C47.4759 59.3922 45.5361 59.958 42.7477 59.6751C42.5052 57.2908 42.9093 55.5126 43.8792 54.3811C44.9299 53.1687 46.5464 52.9263 47.7184 52.9263C48.365 52.9263 48.9711 53.0071 49.3349 53.0879ZM48.5266 49.8145C47.4759 51.1885 45.5361 51.7543 42.7477 51.4714C42.5052 49.0871 42.9093 47.309 43.8792 46.1774C44.9299 44.965 46.5464 44.7226 47.7184 44.7226C48.365 44.7226 48.9711 44.8034 49.3349 44.8842C49.4965 45.8541 49.7794 48.198 48.5266 49.8145Z" fill="white"/>
</g>
<line x1="27.323" y1="56.4999" x2="12.323" y2="69.7305" stroke="white" stroke-width="4"/>
<line x1="71.8275" y1="15.699" x2="54.1433" y2="31.3007" stroke="white" stroke-width="4"/>
<defs>
<clipPath id="clip0_223:345">
<rect width="50" height="50" fill="white" transform="translate(17 18)"/>
</clipPath>
</defs>
</svg>
