<svg width="60" height="60" viewBox="0 0 60 60" fill="none" xmlns="http://www.w3.org/2000/svg">
<path d="M30 2.39999C29.841 2.39774 29.6831 2.42712 29.5356 2.48642C29.388 2.54571 29.2537 2.63375 29.1405 2.7454C29.0272 2.85705 28.9373 2.9901 28.8759 3.13681C28.8145 3.28352 28.7829 3.44096 28.7829 3.59999C28.7829 3.75902 28.8145 3.91647 28.8759 4.06317C28.9373 4.20988 29.0272 4.34293 29.1405 4.45458C29.2537 4.56624 29.388 4.65427 29.5356 4.71357C29.6831 4.77286 29.841 4.80224 30 4.79999C43.9315 4.79999 55.2 16.0686 55.2 30C55.2 43.9314 43.9315 55.2 30 55.2C16.0686 55.2 4.80002 43.9314 4.80002 30C4.80002 21.9688 8.55688 14.8378 14.4 10.2234V18C14.3978 18.159 14.4272 18.3169 14.4864 18.4644C14.5457 18.612 14.6338 18.7463 14.7454 18.8596C14.8571 18.9728 14.9901 19.0627 15.1368 19.1241C15.2835 19.1855 15.441 19.2171 15.6 19.2171C15.7591 19.2171 15.9165 19.1855 16.0632 19.1241C16.2099 19.0627 16.343 18.9728 16.4546 18.8596C16.5663 18.7463 16.6543 18.612 16.7136 18.4644C16.7729 18.3169 16.8023 18.159 16.8 18V7.86093V5.99999H4.80002C4.64101 5.99774 4.48313 6.02712 4.33557 6.08642C4.18801 6.14571 4.05371 6.23375 3.94046 6.3454C3.82722 6.45705 3.73729 6.5901 3.67592 6.73681C3.61454 6.88352 3.58293 7.04096 3.58293 7.19999C3.58293 7.35902 3.61454 7.51647 3.67592 7.66318C3.73729 7.80988 3.82722 7.94293 3.94046 8.05458C4.05371 8.16624 4.18801 8.25427 4.33557 8.31357C4.48313 8.37286 4.64101 8.40224 4.80002 8.39999H12.8391C6.48253 13.4578 2.40002 21.2546 2.40002 30C2.40002 45.2285 14.7715 57.6 30 57.6C45.2286 57.6 57.6 45.2285 57.6 30C57.6 14.7714 45.2286 2.39999 30 2.39999Z" fill="white"/>
</svg>
