<svg width="80" height="80" viewBox="0 0 80 80" fill="none" xmlns="http://www.w3.org/2000/svg">
<path d="M47.8 3.19999C47.35 3.26875 46.95 3.51875 46.7 3.89999L19.5 43.9C19.1688 44.3875 19.1313 45.0187 19.4063 45.5375C19.675 46.0625 20.2125 46.3937 20.8 46.4H34.85L28.85 74.85C28.7 75.6 29.1 76.35 29.8063 76.6375C30.5125 76.9313 31.325 76.6813 31.75 76.05L57.35 36.05C57.6563 35.5562 57.675 34.9375 57.3938 34.425C57.1125 33.9187 56.5813 33.6 56 33.6H43.55L49.55 5.14999C49.6688 4.64375 49.5313 4.10624 49.1813 3.71875C48.8313 3.33124 48.3188 3.1375 47.8 3.19999ZM44.8 12.35L40.05 34.85C39.9438 35.325 40.0563 35.8187 40.3563 36.1937C40.6625 36.575 41.1188 36.7937 41.6 36.8H53.1L33.75 67L38.35 45.15C38.4563 44.675 38.3438 44.1812 38.0438 43.8062C37.7375 43.425 37.2813 43.2062 36.8 43.2H23.8L44.8 12.35Z" fill="white"/>
</svg>
