<svg width="80" height="80" viewBox="0 0 80 80" fill="none" xmlns="http://www.w3.org/2000/svg">
<g clip-path="url(#clip0_104_872)">
<path d="M34.8 -1.32828e-05C34.0875 0.131237 33.5562 0.731236 33.5 1.44999C32.5062 12.5687 26.0812 19.9062 19.55 27.5C13.0187 35.0937 6.39999 43.0312 6.39999 54.95C6.39999 63.1187 10.0562 69.45 14.85 73.65C19.6437 77.85 25.5125 80 30.4 80C30.975 80.0062 31.5125 79.7062 31.8062 79.2062C32.0937 78.7062 32.0937 78.0937 31.8062 77.5937C31.5125 77.0937 30.975 76.7937 30.4 76.8C26.4875 76.8 21.1562 74.9375 16.95 71.25C12.7437 67.5625 9.59999 62.175 9.59999 54.95C9.59999 44.2062 15.4937 37.1187 22 29.55C28.0062 22.5625 34.325 15.0562 36.15 4.34999C60.3812 21.3437 70.4 38.6187 70.4 51.6C70.4 63.9375 62.8688 73.8687 55.4 76.9C54.5687 77.2312 54.1687 78.1687 54.5 79C54.8312 79.8312 55.7687 80.2312 56.6 79.9C65.5812 76.2562 73.6 65.2187 73.6 51.6C73.6 36.6125 62.25 18.0937 36 0.299987C35.6937 0.0812368 35.325 -0.0250133 34.95 -1.32828e-05C34.9 -1.32828e-05 34.85 -1.32828e-05 34.8 -1.32828e-05ZM40.95 24.65C40.5125 24.7 40.1187 24.925 39.85 25.275C39.5875 25.625 39.4812 26.0687 39.55 26.5C40.525 32.1375 40.7625 36.775 40.45 40.25C40.1375 43.725 39.2687 46.0375 38.35 47.1C37.4312 48.1625 36.7312 48.2937 35.35 47.7C33.9687 47.1062 32.0187 45.3875 30.05 42.35C29.7687 41.9187 29.2937 41.65 28.775 41.6312C28.2625 41.6125 27.7687 41.8437 27.45 42.25C21.4812 50.3 21.75 56.7375 23.85 60.9C25.95 65.0625 29.65 67 29.65 67C30.1562 67.3562 30.8187 67.3875 31.3625 67.0875C31.9 66.7812 32.2125 66.1937 32.1687 65.575C32.125 64.9562 31.725 64.425 31.15 64.2C31.15 64.2 28.3 62.6687 26.7 59.5C25.25 56.6187 24.8687 52.3 28.9 46C30.5875 48.1812 32.2875 49.8687 34.1 50.65C36.4437 51.6562 39.1062 51.1062 40.75 49.2C42.3937 47.2937 43.3 44.3562 43.65 40.5C43.8937 37.8062 43.7 34.4687 43.3 30.8C47.6312 35.0812 51.1437 39.6937 52.55 44.7C54.3125 50.975 53.4312 57.625 48.3 64.65C47.775 65.3687 47.9312 66.375 48.65 66.9C49.3687 67.425 50.375 67.2687 50.9 66.55C56.5062 58.875 57.6625 50.9937 55.65 43.85C53.6375 36.7062 48.5875 30.3062 42.15 25C41.8125 24.725 41.3812 24.6 40.95 24.65Z" fill="white"/>
</g>
<defs>
<clipPath id="clip0_104_872">
<rect width="80" height="80" fill="white"/>
</clipPath>
</defs>
</svg>
