<svg width="80" height="80" viewBox="0 0 80 80" fill="none" xmlns="http://www.w3.org/2000/svg">
<path d="M20.8 14.4C18.1688 14.4 16 16.5687 16 19.2V20.8H11.2C8.56875 20.8 6.4 22.9687 6.4 25.6V33.6H3.2C1.45 33.6 0 35.05 0 36.8V43.2C0 44.95 1.45 46.4 3.2 46.4H6.4V54.4C6.4 57.0312 8.56875 59.2 11.2 59.2H16V60.8C16 63.4312 18.1688 65.6 20.8 65.6H25.6C28.2313 65.6 30.4 63.4312 30.4 60.8V46.4H49.6V60.8C49.6 63.4312 51.7688 65.6 54.4 65.6H59.2C61.8312 65.6 64 63.4312 64 60.8V59.2H68.8C71.4313 59.2 73.6 57.0312 73.6 54.4V46.4H76.8C78.55 46.4 80 44.95 80 43.2V36.8C80 35.05 78.55 33.6 76.8 33.6H73.6V25.6C73.6 22.9687 71.4313 20.8 68.8 20.8H64V19.2C64 16.5687 61.8312 14.4 59.2 14.4H54.4C51.7688 14.4 49.6 16.5687 49.6 19.2V33.6H30.4V19.2C30.4 16.5687 28.2313 14.4 25.6 14.4H20.8ZM20.8 17.6H25.6C26.5063 17.6 27.2 18.2937 27.2 19.2V60.8C27.2 61.7062 26.5063 62.4 25.6 62.4H20.8C19.8938 62.4 19.2 61.7062 19.2 60.8V57.8687C19.2313 57.6937 19.2313 57.5187 19.2 57.35V22.6687C19.2313 22.4937 19.2313 22.3187 19.2 22.15V19.2C19.2 18.2937 19.8938 17.6 20.8 17.6ZM54.4 17.6H59.2C60.1063 17.6 60.8 18.2937 60.8 19.2V22.1312C60.7688 22.3062 60.7688 22.4812 60.8 22.65V57.3312C60.7688 57.5062 60.7688 57.6812 60.8 57.85V60.8C60.8 61.7062 60.1063 62.4 59.2 62.4H54.4C53.4938 62.4 52.8 61.7062 52.8 60.8V19.2C52.8 18.2937 53.4938 17.6 54.4 17.6ZM11.2 24H16V56H11.2C10.2938 56 9.6 55.3062 9.6 54.4V45.0687C9.63125 44.8937 9.63125 44.7187 9.6 44.55V35.4687C9.63125 35.2937 9.63125 35.1187 9.6 34.95V25.6C9.6 24.6937 10.2938 24 11.2 24ZM64 24H68.8C69.7063 24 70.4 24.6937 70.4 25.6V34.9312C70.3688 35.1062 70.3688 35.2812 70.4 35.45V44.5312C70.3688 44.7062 70.3688 44.8812 70.4 45.05V54.4C70.4 55.3062 69.7063 56 68.8 56H64V24ZM3.2 36.8H6.4V43.2H3.2V36.8ZM30.4 36.8H49.6V43.2H30.4V36.8ZM73.6 36.8H76.8V43.2H73.6V36.8Z" fill="white"/>
</svg>
