<svg width="85" height="85" viewBox="0 0 85 85" fill="none" xmlns="http://www.w3.org/2000/svg">
<circle cx="42.5" cy="42.5" r="40.5" stroke="white" stroke-width="4"/>
<path d="M58.2689 58.9874L48.753 35.7928C48.2254 34.5061 47.9576 33.1486 47.9576 31.7578V25.6267C47.9576 24.9665 48.2147 24.3458 48.6816 23.8789C49.2509 23.3096 49.5647 22.5526 49.5647 21.7475V20.8789C49.5647 20.3934 49.1709 20 48.6858 20H36.4144C35.9289 20 35.5355 20.3934 35.5355 20.8789V21.7475C35.5355 22.5526 35.8489 23.3096 36.4181 23.8789C36.8851 24.3458 37.1422 24.9665 37.1422 25.6271V31.7578C37.1422 33.1486 36.8748 34.5061 36.3467 35.7928L33.732 42.1663C33.731 42.1687 33.7299 42.1711 33.7289 42.1735L26.8309 58.9874C26.2785 60.3342 26.4326 61.8603 27.2435 63.0692C28.0545 64.2783 29.4075 65 30.8632 65H54.2366C55.6923 65 57.0457 64.2783 57.8566 63.0692C58.6672 61.86 58.8213 60.3342 58.2689 58.9874ZM37.9731 36.4599C38.5883 34.9606 38.9 33.3786 38.9 31.7578V25.6267C38.9 24.4972 38.4602 23.4349 37.6613 22.636C37.4265 22.4012 37.296 22.0895 37.2933 21.7578H47.8069C47.8041 22.0895 47.6736 22.4009 47.4385 22.636C46.6399 23.4349 46.1998 24.4968 46.1998 25.6267V31.7574C46.1998 33.3783 46.5118 34.9603 47.1267 36.4596L49.2488 41.6321H35.851L37.9731 36.4599ZM56.3964 62.09C55.9055 62.8223 55.1183 63.2422 54.2366 63.2422H30.8632C29.9819 63.2422 29.1946 62.8223 28.7033 62.09C28.3329 61.5376 28.1914 60.8969 28.2876 60.2652H29.7357C30.2208 60.2652 30.6146 59.8714 30.6146 59.3863C30.6146 58.9009 30.2208 58.5074 29.7357 58.5074H28.9282L29.9376 56.0465H31.4201C31.9055 56.0465 32.299 55.6527 32.299 55.1676C32.299 54.6821 31.9055 54.2887 31.4201 54.2887H30.6589L31.6683 51.8277H33.1926C33.6781 51.8277 34.0715 51.4339 34.0715 50.9488C34.0715 50.4634 33.6781 50.0699 33.1926 50.0699H32.3896L33.3993 47.609H34.9649C35.4503 47.609 35.8438 47.2152 35.8438 46.7301C35.8438 46.2446 35.4503 45.8512 34.9649 45.8512H34.1203L35.13 43.3902H49.9698L56.6426 59.6548C56.977 60.4702 56.8874 61.358 56.3964 62.09Z" fill="white"/>
<path d="M53.9284 59.0424C53.7444 58.593 53.2315 58.3781 52.7821 58.5617C52.333 58.7458 52.1178 59.2587 52.3014 59.7081L52.3062 59.7191C52.4456 60.0593 52.7735 60.2653 53.1199 60.2653C53.2308 60.2653 53.3434 60.2444 53.4526 60.1997C53.9017 60.0157 54.1169 59.5025 53.9329 59.0534L53.9284 59.0424Z" fill="white"/>
<path d="M52.6865 56.0142L49.5389 48.3423C49.3549 47.8932 48.8416 47.6783 48.3922 47.8627C47.9431 48.0467 47.7286 48.5603 47.9126 49.0094L51.0602 56.6813C51.1995 57.0215 51.5274 57.2268 51.8738 57.2268C51.9847 57.2268 52.0977 57.2059 52.2069 57.1609C52.6559 56.9769 52.8708 56.4633 52.6865 56.0142Z" fill="white"/>
<line x1="23.1522" y1="62.2986" x2="12.4944" y2="71.7013" stroke="white" stroke-width="4"/>
<line x1="70.6007" y1="15.6305" x2="52.6007" y2="33.6305" stroke="white" stroke-width="4"/>
</svg>
